Coordinates
version=1
nRows=10
nColumns=40
inDegrees=yes

Units are S.I. units (second, meters, Newtons, ...)
Angles are in degrees.

endheader
time	pelvis_tilt	pelvis_list	pelvis_rotation	pelvis_tx	pelvis_ty	pelvis_tz	hip_flexion_r	hip_adduction_r	hip_rotation_r	knee_angle_r	knee_angle_r_beta	ankle_angle_r	subtalar_angle_r	mtp_angle_r	hip_flexion_l	hip_adduction_l	hip_rotation_l	knee_angle_l	knee_angle_l_beta	ankle_angle_l	subtalar_angle_l	mtp_angle_l	lumbar_extension	lumbar_bending	lumbar_rotation	arm_flex_r	arm_add_r	arm_rot_r	elbow_flex_r	pro_sup_r	wrist_flex_r	wrist_dev_r	arm_flex_l	arm_add_l	arm_rot_l	elbow_flex_l	pro_sup_l	wrist_flex_l	wrist_dev_l
     38.94750000	     -4.20103654	     -5.17781371	      3.31135731	      0.94113328	      0.93279175	      0.51215672	      7.66538286	      5.12128727	    -19.04292347	     11.22548143	     11.22548143	      9.96180945	      2.28784545	     -4.07243375	     35.19684515	    -11.68900833	     -0.43912100	     42.90145864	     42.90145864	      8.59001435	    -17.68849065	     12.00044140	     -9.09032600	      5.71682671	      3.81583935	     25.10945689	    -16.04119560	     -5.55951972	     63.48164517	     45.21275016	      0.00000000	      0.00000000	      5.38407986	     -6.05978053	     -0.59939492	     23.68024637	     45.62774531	      0.00000000	      0.00000000
     38.95985714	     -4.32420346	     -5.13741374	      3.43010894	      0.93952130	      0.93244685	      0.51207520	      7.21420707	      5.15866153	    -18.99136673	     10.88681269	     10.88681269	     10.18673979	      2.30096900	     -4.15018562	     35.28188240	    -11.21178165	     -0.52620470	     38.83791844	     38.83791844	      8.68428782	    -16.79187348	     12.19888212	     -9.08679893	      5.71390448	      3.82925944	     27.32450109	    -16.08655524	     -5.86642903	     64.98104173	     45.18621848	      0.00000000	      0.00000000	      4.04873491	     -5.93422131	     -0.22730581	     23.22836131	     45.52967627	      0.00000000	      0.00000000
     38.97221429	     -4.46796033	     -5.12934241	      3.54550526	      0.93799343	      0.93193659	      0.51187969	      6.77595110	      5.21282231	    -19.02939148	     10.55322840	     10.55322840	     10.43822227	      2.45466581	     -4.28753510	     35.33518933	    -10.78705715	     -0.60637754	     34.85020465	     34.85020465	      8.74484014	    -15.44299133	     12.28168239	     -9.04510172	      5.75607992	      3.86975883	     29.44238639	    -16.19901163	     -6.05551617	     66.63986956	     45.14923486	      0.00000000	      0.00000000	      2.71283823	     -5.82031406	      0.08629405	     22.92042293	     45.44019991	      0.00000000	      0.00000000
     38.98457143	     -4.53517237	     -5.24447576	      3.72077470	      0.93664246	      0.93131353	      0.51144876	      6.18255514	      5.39370676	    -19.30299723	     10.08161580	     10.08161580	     10.63691648	      2.93882146	     -4.54475478	     35.32330879	    -10.46184888	     -0.55822128	     31.07931295	     31.07931295	      8.58454607	    -13.85346629	     11.55794436	     -9.13179236	      6.00594507	      3.68091935	     31.37949056	    -16.18965454	     -6.02899375	     69.39087014	     45.07252005	      0.00000000	      0.00000000	      1.11126922	     -5.79517587	      0.88864163	     23.23978820	     45.23938517	      0.00000000	      0.00000000
     38.99692857	     -4.61536602	     -5.29597426	      3.82620801	      0.93541474	      0.93059934	      0.51106648	      5.67715807	      5.49561592	    -19.38175343	      9.78329825	      9.78329825	     10.86354032	      3.17730559	     -5.00383905	     35.16367483	    -10.12562363	     -0.60711078	     27.33386328	     27.33386328	      7.94680461	    -12.22392736	      9.92494938	     -9.14167578	      6.13547966	      4.18254444	     32.77544148	    -16.79344750	     -6.22522758	     71.96377987	     45.12123308	      0.00000000	      0.00000000	     -0.85121664	     -6.86653120	      9.11743484	     25.21368850	     43.91322758	      0.00000000	      0.00000000
     39.00928571	     -4.69217785	     -5.35944644	      3.94430670	      0.93429856	      0.92989663	      0.51049673	      5.16188000	      5.60982418	    -19.40713070	      9.48884943	      9.48884943	     11.17469041	      3.31257286	     -5.10545451	     35.10790907	     -9.80715219	     -0.64508309	     24.17419011	     24.17419011	      8.06725205	    -10.37194325	     10.38872216	     -9.10913199	      6.26062023	      4.19875890	     34.66600613	    -16.82904077	     -6.33261959	     73.47492752	     45.08633756	      0.00000000	      0.00000000	     -2.10844966	     -6.74755591	      9.18062641	     24.98439799	     43.89870049	      0.00000000	      0.00000000
     39.02164286	     -4.73742352	     -5.45269542	      4.07787576	      0.93334651	      0.92916847	      0.50984732	      4.56718691	      5.76249546	    -19.47548315	      9.12687241	      9.12687241	     11.47380246	      3.57061675	     -5.19655862	     35.07340351	     -9.54529686	     -0.74568143	     21.51339673	     21.51339673	      8.12008739	     -8.61162451	     10.85124662	     -9.11368893	      6.42869145	      4.12734528	     36.41998676	    -16.77909980	     -6.35175660	     75.24688563	     45.03988216	      0.00000000	      0.00000000	     -3.39511553	     -6.65171896	      9.24569335	     24.92464393	     43.88134996	      0.00000000	      0.00000000
     39.03400000	     -4.75367109	     -5.54674810	      4.19812672	      0.93261769	      0.92844319	      0.50911656	      3.91529763	      5.92126497	    -19.56144450	      8.74538484	      8.74538484	     11.79453710	      3.85887182	     -5.25782005	     35.05075019	     -9.32404528	     -0.97999870	     19.40898184	     19.40898184	      8.12246973	     -7.11195134	     11.29462740	     -9.11994351	      6.58123329	      4.04254958	     37.99934423	    -16.72491503	     -6.32617352	     77.16103537	     44.98781553	      0.00000000	      0.00000000	     -4.71021277	     -6.59517847	      9.31779085	     25.01136226	     43.86251246	      0.00000000	      0.00000000
     39.04635714	     -4.78571110	     -5.64275908	      4.30363322	      0.93201773	      0.92767577	      0.50830215	      3.30411847	      6.06568719	    -19.59698852	      8.42977929	      8.42977929	     12.13815567	      4.08557168	     -5.28627924	     35.07218820	     -9.12164584	     -1.27943192	     17.85153736	     17.85153736	      7.99003996	     -6.02376661	     11.66780274	     -9.08073588	      6.74863013	      4.02129459	     39.43188187	    -16.68548075	     -6.32306518	     78.88180270	     44.94227912	      0.00000000	      0.00000000	     -5.90064527	     -6.53659610	      9.39761302	     25.09154424	     43.84234684	      0.00000000	      0.00000000
     39.05871429	     -4.87644147	     -5.76117343	      4.38430278	      0.93151613	      0.92674678	      0.50742489	      2.80212709	      6.21244756	    -19.58536822	      8.21650221	      8.21650221	     12.49211607	      4.21712399	     -5.30572587	     35.22586557	     -8.95362260	     -1.57666079	     16.94021156	     16.94021156	      7.77848958	     -5.42617238	     11.87953792	     -8.93238373	      6.91293575	      4.11027227	     40.87762957	    -16.75841860	     -6.40565982	     80.21881529	     44.91078312	      0.00000000	      0.00000000	     -6.92383977	     -6.41731843	      9.46624011	     25.06272387	     43.82220364	      0.00000000	      0.00000000
